<svg version="1.0" xmlns="http://www.w3.org/2000/svg" width="933.333" height="933.333" viewBox="0 0 700 700"><path d="M325.5.7c-1.6.1-7.9.8-14 1.4-6 .6-11.9 1.3-13 1.5-1.1.3-3.6.7-5.5 1-11.9 1.7-31.9 6.5-44.7 10.5-11.2 3.5-31.4 10.8-32.8 11.9-.5.4-2.1 1.1-3.5 1.5-4.2 1.3-28.9 13.8-39.5 20-25.7 15.1-48.9 32.9-69.5 53.5-16.6 16.5-19.6 19.8-29.4 32.4-33.5 42.9-56.7 94.1-67 148.1C3.5 298.6 3 301.8 1.3 320c-1.5 16.1-.8 60.8 1.2 70.9.2 1.2.6 4.7.9 7.9s1.3 9.6 2.2 14.2c10.4 55.4 32.5 105.9 65 148.6 10.5 13.8 16.5 20.6 31.9 35.9 43.9 44 101.9 76.9 162 91.9 11.8 3 23.3 5.3 29.4 6.1 2.3.3 4.6.7 5 .9.6.4 8.4 1.2 24.6 2.6 8.9.8 52.1.5 56-.3 1.1-.3 5-.8 8.7-1.1 3.7-.4 7.7-.9 9-1.1s5-.8 8.3-1.4c3.3-.5 7.7-1.3 9.9-1.6 2.1-.3 4.2-.7 4.6-1 .3-.2 2.2-.7 4.1-1 9.6-1.6 42.4-11.6 52-15.7 1.9-.9 7.5-3.2 12.4-5.3 45.3-19.3 89.6-51.1 122.9-88.4 33.9-38 58.3-80.8 73-128.2 3.9-12.6 10.1-39.1 11.1-47.9.4-3 .8-5.7 1-6s.6-3.9 1-8 .9-8.9 1.2-10.5c.2-1.7.5-13.8.7-27 .3-21.7-.2-32.6-1.9-46.4-.3-2.5-.8-6.2-1-8.1-1-8.4-3.9-22.6-7.5-37-8.5-34.2-22.5-66.9-41.1-96.7-7-11.1-21.8-31.9-26-36.3-.8-.9-3.8-4.5-6.8-8-8.9-10.7-31.4-32.3-44.4-42.8-34.7-27.8-72.8-48.5-114.7-62-12.2-4-29.1-8.5-36-9.7-1.9-.3-5.3-1-7.5-1.5s-6.2-1.2-9-1.5c-2.7-.4-5.7-.8-6.5-1-.8-.3-4.2-.7-7.5-1-3.3-.4-7.6-.9-9.5-1.1-4-.6-50-1.2-54.5-.7M505 201.5l19.1 18.9-42.1 42.1-42.1 42.1 42.2 42.1 42.2 42.2-19.1 19.1c-10.5 10.4-19.4 19-19.7 19-.6 0-122.5-121.7-122.5-122.3s122.3-122.8 122.6-122.5c.2.2 8.9 8.8 19.4 19.3M282.7 334.4c33.2 33.1 60.3 60.6 60.3 61.1 0 .6-27.4 28.4-61 62l-61 61-19-19c-10.4-10.4-19-19.3-19-19.8 0-.4 18.7-19.4 41.5-42.2s41.5-41.7 41.5-41.9-18.7-19-41.5-41.9c-22.8-22.8-41.5-41.8-41.5-42.3 0-1.7 37.4-38.3 38.4-37.7.6.4 28.2 27.7 61.3 60.7"/></svg>